<svg width="55" height="50" viewBox="0 0 55 50" fill="none" xmlns="http://www.w3.org/2000/svg">
<path d="M49.0674 5.98459C47.8213 4.72136 46.3417 3.71927 44.7132 3.03558C43.0847 2.3519 41.3392 2 39.5765 2C37.8138 2 36.0683 2.3519 34.4398 3.03558C32.8113 3.71927 31.3317 4.72136 30.0856 5.98459L27.4993 8.60501L24.9131 5.98459C22.396 3.43415 18.982 2.00132 15.4222 2.00132C11.8624 2.00132 8.44842 3.43415 5.93127 5.98459C3.41412 8.53503 2 11.9942 2 15.601C2 19.2079 3.41412 22.6671 5.93127 25.2175L8.51749 27.8379L27.4993 47.0708L46.4812 27.8379L49.0674 25.2175C50.3142 23.9549 51.3032 22.4557 51.9779 20.8057C52.6527 19.1557 53 17.3871 53 15.601C53 13.815 52.6527 12.0464 51.9779 10.3964C51.3032 8.74638 50.3142 7.24723 49.0674 5.98459V5.98459Z" fill="#FD5200" stroke="#FD5200" stroke-width="3" stroke-linecap="round"/>
</svg>
