<svg id="icon-link" width="37" height="36" viewBox="0 0 37 36" fill="none" xmlns="http://www.w3.org/2000/svg">
<path d="M15.4167 19.5C16.0787 20.3612 16.9234 21.0738 17.8934 21.5894C18.8634 22.1051 19.9361 22.4117 21.0386 22.4885C22.1411 22.5653 23.2477 22.4106 24.2833 22.0347C25.3189 21.6588 26.2594 21.0706 27.0408 20.31L31.6658 15.81C33.07 14.3955 33.8469 12.501 33.8294 10.5345C33.8118 8.56802 33.0011 6.68693 31.5719 5.29637C30.1427 3.90581 28.2094 3.11704 26.1883 3.09995C24.1672 3.08287 22.22 3.83882 20.7662 5.20501L18.1146 7.77001" stroke="#069FA6" stroke-width="3" stroke-linecap="round" stroke-linejoin="round"/>
<path d="M21.5833 16.5C20.9213 15.6388 20.0766 14.9262 19.1066 14.4106C18.1366 13.8949 17.0639 13.5883 15.9614 13.5115C14.8589 13.4346 13.7523 13.5894 12.7167 13.9653C11.6811 14.3412 10.7406 14.9294 9.95917 15.69L5.33417 20.19C3.93003 21.6045 3.15308 23.499 3.17064 25.4655C3.1882 27.432 3.99888 29.3131 5.42807 30.7036C6.85726 32.0942 8.7906 32.8829 10.8117 32.9C12.8328 32.9171 14.7799 32.1612 16.2338 30.795L18.87 28.23" stroke="#069FA6" stroke-width="3" stroke-linecap="round" stroke-linejoin="round"/>
</svg>
